<svg xmlns="http://www.w3.org/2000/svg" xmlns:xlink="http://www.w3.org/1999/xlink" viewBox="0 0 2268.25 610.62"><defs><style>.cls-1{font-size:462.59px;fill:none;font-family:bitwise, Bitwise;letter-spacing:0.03em;}.cls-2{fill:#fcf200;}.cls-3{clip-path:url(#clip-path);}.cls-4{fill:#4699d3;}.cls-5{fill:#33328d;}</style><clipPath id="clip-path" transform="translate(0 -57.76)"><text class="cls-1" transform="translate(259.63 394.61)">b</text></clipPath></defs><title>b</title><g id="Layer_2" data-name="Layer 2"><g id="logo"><path class="cls-2" d="M307.36,419.32a37.64,37.64,0,0,1-13.74-2.64,47.25,47.25,0,0,1-11-6A36.89,36.89,0,0,1,273,400.31a28.64,28.64,0,0,1-4.59-15.38V87.22A23.29,23.29,0,0,1,271,76.68a25.2,25.2,0,0,1,6.25-8,32.26,32.26,0,0,1,6.47-4.31,23.41,23.41,0,0,1,10.54-2.54h21.68a22.9,22.9,0,0,1,9,1.91,35,35,0,0,1,5.41,2.92,23.8,23.8,0,0,1,6.53,6.51A21.09,21.09,0,0,1,340.4,85v80.09a54.4,54.4,0,0,1,10.78-1.1H474.06a30.43,30.43,0,0,1,11.94,2.6,33.68,33.68,0,0,1,10.46,7.09A42,42,0,0,1,503,182a26.79,26.79,0,0,1,3.69,13.66V383.12a33,33,0,0,1-3.26,14,39.87,39.87,0,0,1-7.8,11.13A40.87,40.87,0,0,1,485,415.9a31.34,31.34,0,0,1-14.1,3.42Zm125.53-67.88V232.3H368V351.44Z" transform="translate(0 -57.76)"/><g class="cls-3"><rect class="cls-4" width="2268.25" height="357.74"/><rect class="cls-5" y="252.88" width="2268.25" height="357.74"/></g></g></g></svg>