<svg id="Layer_1" data-name="Layer 1" xmlns="http://www.w3.org/2000/svg" viewBox="0 0 587.29 538.64"><defs><style>.cls-1{fill:#1a2453;}.cls-2{fill:#fff;}.cls-3{fill:#e6e7e8;}.cls-4{fill:#2896cd;}.cls-5{fill:none;}.cls-6{fill:#f8ada3;}.cls-7{fill:#96cff0;}.cls-8{fill:#f1f1f2;}.cls-9{fill:#fedf40;}.cls-10{fill:#d0d2d3;}.cls-11{fill:#e09d95;}.cls-12{fill:#2589bc;}</style></defs><polygon class="cls-1" points="486.77 321.19 504.88 337.26 542.83 277.35 514.8 254.57 478.02 301.38 486.77 321.19"/><polygon class="cls-1" points="316.78 414.56 334.89 430.63 372.84 370.73 344.81 347.94 308.03 394.76 316.78 414.56"/><polygon class="cls-2" points="181.43 188.05 452.13 31.75 587.47 109.9 316.78 266.2 181.43 188.05"/><polyline class="cls-2" points="316.78 422.5 249.11 461.57 249.11 383.42 316.78 266.2 316.78 246.66 181.43 168.51 181.43 188.05 113.76 305.27 113.76 383.42 249.11 461.57"/><path class="cls-3" d="M249.11,383.42v78.15l67.67-39.07c-3.43-59.85,55.75-86.53,67.67-39.08L486,324.81c10-64.44,48.7-74.49,67.67-39.07l33.84-19.54V90.36L316.78,246.66V266.2Z"/><polygon class="cls-4" points="181.43 204.93 299.42 268.01 240.43 378.41 124.33 311.38 181.43 204.93"/><polygon class="cls-4" points="324.18 270.47 267.16 373 384.45 305.27 384.45 235.42 324.18 270.47"/><polygon class="cls-2" points="181.43 168.51 452.13 12.22 587.47 90.36 316.78 246.66 181.43 168.51"/><line class="cls-5" x1="485.96" y1="324.81" x2="384.45" y2="383.42"/><path class="cls-5" d="M553.63,285.74c-19-35.42-57.69-25.37-67.67,39.07"/><polyline class="cls-5" points="316.78 266.2 316.78 246.66 587.47 90.36 587.47 109.9 587.47 266.2 553.63 285.74"/><polyline class="cls-6" points="390.91 230.85 582.54 119.37 582.54 129.44 390.91 240.14"/><polygon class="cls-6" points="253.97 393.71 253.9 406.45 582.6 216.23 582.68 204.09 253.97 393.71"/><path class="cls-5" d="M316.78,422.5c-3.43-59.85,55.75-86.53,67.67-39.08"/><ellipse class="cls-4" cx="352.41" cy="399.31" rx="36.21" ry="24.67" transform="translate(-150.04 575.92) rotate(-67.94)"/><polygon class="cls-6" points="471.03 198.09 497.46 183.31 497.27 205.72 519.8 193.04 519.78 218.6 500.62 228.78 500.88 248.52 475.15 262.13 474.88 242.46 448.39 256.3 447.77 232.28 471.3 219.27 471.03 198.09"/><ellipse class="cls-7" cx="355.1" cy="399.4" rx="20.87" ry="13.96" transform="translate(-148.43 578.47) rotate(-67.94)"/><ellipse class="cls-2" cx="354.17" cy="399.31" rx="11.27" ry="6.76" transform="translate(-148.94 577.55) rotate(-67.94)"/><ellipse class="cls-4" cx="522.4" cy="305.94" rx="36.21" ry="24.67" transform="translate(42.63 675.17) rotate(-67.94)"/><ellipse class="cls-7" cx="525.1" cy="306.03" rx="20.87" ry="13.96" transform="translate(44.24 677.71) rotate(-67.94)"/><ellipse class="cls-2" cx="524.16" cy="305.94" rx="11.27" ry="6.76" transform="matrix(0.38, -0.93, 0.93, 0.38, 43.73, 676.8)"/><polygon class="cls-8" points="372.87 88.97 440.55 49.89 508.15 88.92 440.51 128.02 372.87 88.97"/><polygon class="cls-3" points="440.51 128.02 440.55 135.72 508.22 96.95 508.15 88.92 440.51 128.02"/><polygon class="cls-3" points="372.87 88.97 372.87 97.42 440.55 135.72 440.51 128.02 372.87 88.97"/><polygon class="cls-9" points="119.98 347.17 119.98 370.3 243.81 440.24 243.81 417.07 119.98 347.17"/><polygon class="cls-10" points="212.53 165.27 227.63 156.54 321.78 211.31 307.17 220.68 212.53 165.27"/><polygon class="cls-6" points="213 156.16 228.11 147.44 266.73 169.74 252.12 179.11 213 156.16"/><polygon class="cls-11" points="252.12 179.11 252.12 188.61 266.73 179.11 266.73 169.74 252.12 179.11"/><polygon class="cls-11" points="252.12 188.61 213 166.98 213 156.16 252.12 179.11 252.12 188.61"/><polygon class="cls-2" points="255.09 179.38 270.2 170.65 282.94 177.86 268.33 187.23 255.09 179.38"/><polygon class="cls-3" points="268.35 186.56 267.98 197.75 282.54 188.56 282.94 177.8 268.35 186.56"/><polygon class="cls-3" points="267.98 197.75 255.09 190.19 255.09 179.38 268.35 186.56 267.98 197.75"/><polygon class="cls-4" points="273.31 190.09 288.41 181.37 327.04 203.67 312.42 213.04 273.31 190.09"/><polygon class="cls-12" points="312.42 213.04 311.88 223.47 327.04 213.04 327.04 203.67 312.42 213.04"/><polygon class="cls-12" points="311.88 223.47 273.31 200.9 273.31 190.09 312.42 213.04 311.88 223.47"/><polygon class="cls-12" points="143.63 360.52 143.63 383.42 206.41 419.12 206.41 395.96 143.63 360.52"/></svg>