<?xml version="1.0" encoding="utf-8"?>
<!-- Generator: Adobe Illustrator 23.0.1, SVG Export Plug-In . SVG Version: 6.00 Build 0)  -->
<svg version="1.1" id="Layer_1" xmlns="http://www.w3.org/2000/svg" xmlns:xlink="http://www.w3.org/1999/xlink" x="0px" y="0px"
	 viewBox="0 0 1080 1080" style="enable-background:new 0 0 1080 1080;" xml:space="preserve">
<style type="text/css">
	.st0{enable-background:new    ;}
	.st1{fill:#34BAC8;}
	.st2{fill:#EC5760;}
	.st3{fill:#F6C55E;}
</style>
<g class="st0">
	<path class="st1" d="M312.4,166.9h58.9v356.8c20-37.7,94.2-131.9,233.1-131.9c171.9,0,292,134.2,292,322.6
		c0,186-123.6,319.1-297.9,319.1c-147.2,0-213.1-104.8-227.2-128.3v113h-58.9V166.9z M600.8,978.1c130.7,0,234.3-103.6,234.3-263.7
		c0-156.6-98.9-267.3-232-267.3c-127.2,0-234.3,97.7-234.3,267.3C368.9,858,458.4,978.1,600.8,978.1z"/>
</g>
<g class="st0">
	<path class="st2" d="M745.4,981.8h-91.8l71.2-425.6h98.3l-23.5,140.1c7.7-7.7,40.6-31.2,87.7-31.2c77.7,0,121.9,54.2,121.9,132.5
		c0,110.7-80.7,191.9-181.3,191.9c-45.3,0-71.2-21.8-78.3-31.8L745.4,981.8z M828.5,903.5c45.3,0,80.7-36.5,80.7-89.5
		c0-37.1-20.6-62.4-55.3-62.4c-44.7,0-80.7,34.7-80.7,90.1C773.1,875.8,792,903.5,828.5,903.5z"/>
</g>
<g class="st0">
	<path class="st3" d="M269.1,508.3c49.3-73.7,178.7-155.6,327.2-92.5C748,480.3,803.7,647.3,730.4,819.6
		c-72.3,170.1-228.9,249.4-383.8,183.5c-157.1-66.8-175.4-225.5-156.7-308.5l-81.1,190.7L98,880.8L431.1,97.3l10.8,4.6L269.1,508.3z
		 M351.2,992.3C491,1051.7,647.7,984,719.6,815c70.5-165.8,14.1-328-127.9-388.3c-133.3-56.7-289.1-0.1-365.1,178.7
		C162.1,757,201.7,928.7,351.2,992.3z"/>
</g>
</svg>
