<svg id="Layer_1" data-name="Layer 1" xmlns="http://www.w3.org/2000/svg" viewBox="0 0 676.67 668.91"><defs><style>.cls-1{fill:#ffdf3f;}.cls-2{fill:#fcb417;}.cls-3{fill:#1a2453;}.cls-12,.cls-4{fill:none;}.cls-5{fill:#2896cd;}.cls-6{fill:#96cff0;}.cls-7{fill:#fff;}.cls-8{fill:#f7a31c;}.cls-9{fill:#4699d3;}.cls-10{fill:#666;}.cls-11{fill:#f8ada3;}.cls-12{stroke:#4d4d4d;stroke-linecap:round;stroke-miterlimit:10;stroke-width:5px;}</style></defs><polygon class="cls-1" points="675.67 88 324.67 289 176.67 203 525.67 0 675.67 88"/><polygon class="cls-2" points="305.67 327 157.67 242 176.67 203 324.67 289 305.67 327"/><polygon class="cls-2" points="249.67 500.9 101.67 415.9 157.67 363 305.67 448 249.67 500.9"/><polygon class="cls-3" points="556.52 375.97 579.84 396.66 628.72 319.51 592.62 290.16 545.25 350.46 556.52 375.97"/><path class="cls-4" d="M556.52,386.18c-4.41-77.08,71.8-111.43,87.15-50.32"/><ellipse class="cls-5" cx="602.41" cy="356.33" rx="46.64" ry="31.77" transform="translate(45.89 780.77) rotate(-67.94)"/><ellipse class="cls-6" cx="605.88" cy="356.44" rx="26.88" ry="17.98" transform="translate(47.96 784.05) rotate(-67.94)"/><ellipse class="cls-7" cx="604.67" cy="356.33" rx="14.52" ry="8.71" transform="translate(47.3 782.87) rotate(-67.94)"/><polygon class="cls-1" points="305.67 448 157.67 363 157.67 242 305.67 327 305.67 448"/><polygon class="cls-1" points="249.67 566 101.67 480.9 101.67 415.9 249.67 500.9 249.67 566"/><polygon class="cls-3" points="306.34 521.23 329.66 541.92 378.54 464.77 342.44 435.42 295.07 495.72 306.34 521.23"/><path class="cls-4" d="M306.34,531.44c-4.41-77.08,71.8-111.43,87.15-50.32"/><ellipse class="cls-5" cx="352.23" cy="501.59" rx="46.64" ry="31.77" transform="translate(-244.94 639.61) rotate(-67.94)"/><ellipse class="cls-6" cx="355.7" cy="501.7" rx="26.88" ry="17.98" transform="translate(-242.87 642.89) rotate(-67.94)"/><ellipse class="cls-7" cx="354.49" cy="501.59" rx="14.52" ry="8.71" transform="translate(-243.52 641.71) rotate(-67.94)"/><path class="cls-8" d="M557.59,348.43c13.17-32.51,41.81-51.58,63.95-42.61,11.81,4.79,19.39,16.59,21.89,31.49L676.67,318l-1-230-351,201-19,38V448l-56,53v65l51.94-30.17c-2.09-13-.37-28.2,5.72-43.22,13.17-32.5,41.8-51.58,63.95-42.6,12.09,4.9,19.73,17.15,22.05,32.56l158.39-92C549.89,377.86,551.67,363,557.59,348.43Z"/><polygon class="cls-9" points="291.67 430.83 169.67 360.76 169.67 261.02 291.67 331.08 291.67 430.83"/><polygon class="cls-10" points="215.67 535.09 133.89 488.06 133.89 452.14 215.67 499.11 215.67 535.09"/><ellipse class="cls-11" cx="232.25" cy="527.71" rx="9.27" ry="16.44" transform="translate(-49.26 24.55) rotate(-5.47)"/><ellipse class="cls-11" cx="118.27" cy="462.63" rx="9.27" ry="16.44" transform="translate(-43.57 13.38) rotate(-5.47)"/><path class="cls-10" d="M197.7,323.59l25,70.09c.84,1,1.93,1.46,2.76,1.07a2.53,2.53,0,0,0,1.14-2.58Q212.14,357.88,197.7,323.59Z"/><polygon class="cls-9" points="374.67 400 327.67 427 327.67 332 374.67 305 374.67 400"/><polygon class="cls-2" points="675.67 112 305.67 327 324.67 289 675.67 88 675.67 112"/><polygon class="cls-9" points="442.67 360.52 395.67 387.52 395.67 292.52 442.67 265.52 442.67 360.52"/><polygon class="cls-9" points="510.67 320.52 463.67 347.52 463.67 252.53 510.67 225.53 510.67 320.52"/><polygon class="cls-9" points="580.67 279.52 533.67 306.52 533.67 211.53 580.67 184.53 580.67 279.52"/><polygon class="cls-9" points="650.67 239.53 603.67 266.52 603.67 171.53 650.67 144.53 650.67 239.53"/><line class="cls-12" x1="383.44" y1="430.62" x2="544.67" y2="337"/><line class="cls-12" x1="401.29" y1="454.05" x2="535.17" y2="376.5"/><line class="cls-12" x1="625.17" y1="290.5" x2="669.17" y2="264.5"/><line class="cls-12" x1="647.17" y1="312.5" x2="668.17" y2="300.5"/></svg>