<svg xmlns="http://www.w3.org/2000/svg" viewBox="0 0 552.48 482"><defs><style>.cls-1{fill:#666;}.cls-2{fill:#4d4d4d;}.cls-3{fill:#1a1a1a;}.cls-4{fill:none;}.cls-5{fill:#333;}.cls-6{fill:gray;}.cls-7{fill:#fcb017;}.cls-8{fill:#f8880e;}.cls-9{fill:#ffdf3f;}.cls-10{fill:#fcbe21;}.cls-11{fill:#4699d3;}.cls-12{fill:#63dbf7;}.cls-13{fill:#146fc1;}.cls-14{fill:#999;}.cls-15{fill:#f8ada3;}.cls-16{fill:#f8bdab;}</style></defs><g id="Layer_3" data-name="Layer 3"><polygon class="cls-1" points="479.02 247 469.02 241 469.02 95 478.02 89 479.02 247"/><path class="cls-2" d="M200.63,289.51c-17,9-30.92-7.76-29-25,2-18,12.1-29.26,27-39C199.39,225,201,289.31,200.63,289.51Z"/><path class="cls-2" d="M327.92,151.5c17-9,30.91,7.76,29,25-2,18-13.39,29.27-28.29,39C327.87,216,327.54,151.7,327.92,151.5Z"/><path class="cls-3" d="M272.11,119.37c17-9,30.92,7.76,29,25-2,18-12.1,29.26-27,39C273.36,183.87,271.73,119.57,272.11,119.37Z"/><polygon class="cls-1" points="330.63 214.51 200.63 289.51 140.63 257.51 300.63 167.51 330.63 214.51"/><polygon class="cls-3" points="298.35 197.7 313.14 210.82 344.14 161.89 309.63 141.51 275.63 170.51 298.35 197.7"/><path class="cls-4" d="M298.35,204.18c-2.8-48.89,45.54-70.68,55.28-31.92"/><ellipse class="cls-5" cx="327.46" cy="185.24" rx="29.58" ry="20.15" transform="translate(32.77 419.14) rotate(-67.94)"/><ellipse class="cls-3" cx="329.66" cy="185.31" rx="17.05" ry="11.4" transform="translate(34.08 421.22) rotate(-67.94)"/><ellipse class="cls-2" cx="328.89" cy="185.24" rx="9.21" ry="5.52" transform="translate(33.67 420.47) rotate(-67.94)"/><path class="cls-3" d="M269.63,184.51c-6.77-3.15-12.06-8.14-13-11C252,159.32,241.05,146.06,269,128.35c18.34,10.33,38.32,19.83,56.66,30.16-11.28,3.88-25,23-17,48"/><polygon class="cls-3" points="172.77 269.52 187.56 282.64 218.56 233.71 184.05 213.33 150.05 242.33 172.77 269.52"/><path class="cls-4" d="M172.77,276c-2.8-48.89,45.54-70.68,55.28-31.92"/><ellipse class="cls-5" cx="201.88" cy="257.06" rx="29.58" ry="20.15" transform="translate(-112.19 347.59) rotate(-67.94)"/><ellipse class="cls-3" cx="204.08" cy="257.13" rx="17.05" ry="11.4" transform="translate(-110.88 349.68) rotate(-67.94)"/><ellipse class="cls-2" cx="203.31" cy="257.06" rx="9.21" ry="5.52" transform="translate(-111.3 348.92) rotate(-67.94)"/><path class="cls-3" d="M144.05,256.33c-6.77-3.15-12.06-8.14-13-11-4.66-14.19-15.58-27.45,12.34-45.16,18.34,10.33,38.32,19.83,56.66,30.16-11.28,3.88-25,23-17,48"/><path class="cls-6" d="M126.63,259.51c-6.77-3.15-9.06-10.14-10-13-4.66-14.19-1.93-34.28,26-52,18.33,10.34,37.59,21,55.93,31.29-20.93,13.71-30.22,33.83-25.93,48.71.72,2.52,2,11,12,16"/><path class="cls-6" d="M345.36,150.69a22.62,22.62,0,0,0-16.73.82c-18.67-10.66-38.34-21.33-57-32a20.56,20.56,0,0,1,8-3,15.52,15.52,0,0,1,10,2Z"/><polygon class="cls-6" points="328.63 151.51 198.56 225.8 142.63 194.51 271.63 119.51 328.63 151.51"/><path class="cls-7" d="M329.89,189.51,205,260.59a3.21,3.21,0,0,1-3.9-.45,2.66,2.66,0,0,1-.45-.63c-.94-1.79.1-4.79,3.07-6.43L327.41,181.4a3.54,3.54,0,0,1,5.2,2l0,.07A5.6,5.6,0,0,1,329.89,189.51Z"/><path class="cls-8" d="M245.7,235.24l-40.17,22.54a1,1,0,0,1-1.25-.14,1,1,0,0,1-.15-.2,1.67,1.67,0,0,1,1-2Q225,244,244.91,232.67a1.14,1.14,0,0,1,1.67.64v0A1.76,1.76,0,0,1,245.7,235.24Z"/><path class="cls-8" d="M328.57,187.74,288.4,210.29a1.07,1.07,0,0,1-1.26-.15,1,1,0,0,1-.14-.2,1.67,1.67,0,0,1,1-2l39.78-22.73a1.16,1.16,0,0,1,1.68.65v0A1.75,1.75,0,0,1,328.57,187.74Z"/><polygon class="cls-9" points="469.02 95 340.02 169 192.02 83 319.02 7 469.02 95"/><polygon class="cls-7" points="321.02 328 173.02 243 192.02 83 340.02 169 321.02 328"/><polygon class="cls-9" points="321.02 392 173.02 306.9 173.02 241.9 321.02 326.9 321.02 392"/><polygon class="cls-10" points="469.02 306 321.02 392 321.02 327 340.02 169 469.02 95 469.02 306"/><polygon class="cls-7" points="289.02 394.68 162.02 321.66 162.02 265.88 289.02 338.82 289.02 394.68"/><polygon class="cls-8" points="289.02 339 162.02 266 181.02 254 308.02 326 289.02 339"/><polygon class="cls-7" points="307.02 383 289.02 395 289.02 339 308.02 326 307.02 383"/><polygon class="cls-11" points="324.65 292.3 176.65 207.3 188.65 113.3 336.65 199.3 324.65 292.3"/><polygon class="cls-12" points="339.02 285 323.92 293.68 335.92 199.68 351.02 191 339.02 285"/><polygon class="cls-12" points="420.02 240 355.02 277 366.37 186.01 421.02 154 420.02 240"/><polygon class="cls-12" points="457.02 219.43 434.02 234 434.02 148 457.02 134 457.02 219.43"/><polygon class="cls-6" points="478.02 89 469.02 95 318.42 6.89 329.02 0 478.02 89"/><polygon class="cls-13" points="188.02 470 40.02 385 147.96 320.58 295.96 406.58 188.02 470"/><polygon class="cls-6" points="188.02 470 188.02 457 296.02 394 296.02 406 188.02 470"/><polygon class="cls-6" points="40.02 385.07 40.02 372.07 148.02 309.07 148.02 321.07 40.02 385.07"/><polygon class="cls-2" points="296.02 393.68 148.02 308.58 148.02 243.59 296.02 328.58 296.02 393.68"/><polygon class="cls-1" points="148.02 308.69 40.02 372 116.02 291.69 133.02 253.69 148.02 243.69 148.02 308.69"/><polygon class="cls-1" points="188.02 458 40.02 372 148.02 308 296.02 394 188.02 458"/><polygon class="cls-6" points="296.02 394 188.02 458 264.02 377 281.02 339 296.02 329 296.02 394"/><polygon class="cls-5" points="154.02 312.42 46.02 375.42 122.02 295.42 139.02 257.42 154.02 247.42 154.02 312.42"/><polygon class="cls-14" points="139.02 257 122.02 295 46.02 376 40.02 372 116.02 291 133.02 253 148.02 243 154.02 247 139.02 257"/><polygon class="cls-14" points="281.41 338.95 264.41 376.95 188.02 458 182.02 455 258.41 372.95 275.41 334.95 290.41 324.95 296.41 328.95 281.41 338.95"/><polygon class="cls-6" points="281.02 339 133.02 253 148.02 243 296.02 329 281.02 339"/><polygon class="cls-1" points="281.2 331.51 133.2 245.51 148.2 235.51 296.02 322 281.2 331.51"/><polygon class="cls-14" points="281.02 339 133.02 253 133.2 245.51 281.2 331.51 281.02 339"/><polygon class="cls-14" points="40.02 372 188.02 458 182.02 462 34.02 376 40.02 372"/><polygon class="cls-6" points="182.02 462 188.02 458 188.02 470 182.02 474 182.02 462"/><polygon class="cls-14" points="27.02 414.01 33.96 389 63.73 406 27.02 414.01"/><polygon class="cls-14" points="56.94 431.44 64.02 406 94.02 423 56.94 431.44"/><polygon class="cls-14" points="86.8 448.4 94.02 423 123.02 440 86.8 448.4"/><polygon class="cls-14" points="115.72 464.83 123.27 440.01 152.44 456.83 115.72 464.83"/><polygon class="cls-14" points="145.3 482 153.02 457 182.02 474 145.3 482"/><polygon class="cls-6" points="145.02 470 182.02 462 182.02 474 145.02 482 145.02 470"/><polygon class="cls-6" points="116.02 452.25 153.02 444.25 153.02 456.25 116.02 464.25 116.02 452.25"/><polygon class="cls-6" points="87.02 436 123.02 428 123.02 440 87.02 448 87.02 436"/><polygon class="cls-6" points="57.02 419 94.02 410.56 94.02 423 57.02 431.56 57.02 419"/><polygon class="cls-6" points="27.02 401 64.02 393 64.02 405.64 27.02 414.2 27.02 401"/><polygon class="cls-14" points="26.88 401.51 34.02 376 64.02 393 26.88 401.51"/><polygon class="cls-14" points="56.83 419.07 63.91 393.45 93.94 410.57 56.83 419.07"/><polygon class="cls-14" points="86.71 436.16 93.94 410.57 124.02 428 86.71 436.16"/><polygon class="cls-14" points="115.67 452.71 123.22 427.71 152.41 444.65 115.67 452.71"/><polygon class="cls-14" points="145.27 470 152.99 444.82 182.02 461.94 145.27 470"/><polygon class="cls-14" points="296.02 329 281.02 339 281.2 331.51 296.02 322 296.02 329"/><path class="cls-2" d="M396,413c-17,9-30.92-7.76-29-25,2-18,12.1-29.26,27-39C394.77,348.51,396.39,412.8,396,413Z"/><path class="cls-2" d="M523.3,275c17-9,30.92,7.77,29,25-2,18-13.39,29.28-28.28,39C523.26,339.49,522.92,275.18,523.3,275Z"/><path class="cls-3" d="M467.5,242.86c17-9,30.92,7.76,29,25-2,18-12.1,29.26-27,39C468.74,307.35,467.12,243.06,467.5,242.86Z"/><polygon class="cls-1" points="526.02 338 396.02 413 336.02 381 496.02 291 526.02 338"/><polygon class="cls-3" points="493.74 321.19 508.53 334.31 539.53 285.38 505.02 265 471.02 294 493.74 321.19"/><path class="cls-4" d="M493.74,327.67c-2.8-48.89,45.54-70.68,55.28-31.92"/><ellipse class="cls-5" cx="522.84" cy="308.73" rx="29.58" ry="20.15" transform="translate(40.32 677.32) rotate(-67.94)"/><ellipse class="cls-3" cx="525.04" cy="308.8" rx="17.05" ry="11.4" transform="translate(41.63 679.4) rotate(-67.94)"/><ellipse class="cls-2" cx="524.28" cy="308.73" rx="9.21" ry="5.52" transform="translate(41.22 678.65) rotate(-67.94)"/><path class="cls-3" d="M465,308c-6.77-3.15-12.07-8.14-13-11-4.66-14.19-15.59-27.45,12.34-45.16C482.7,262.17,502.68,271.67,521,282c-11.28,3.88-25,23-17,48"/><polygon class="cls-3" points="368.16 393.01 382.95 406.13 413.95 357.2 379.44 336.82 345.44 365.82 368.16 393.01"/><path class="cls-4" d="M368.16,399.49c-2.8-48.89,45.54-70.68,55.28-31.92"/><ellipse class="cls-5" cx="397.26" cy="380.55" rx="29.58" ry="20.15" transform="translate(-104.64 605.77) rotate(-67.94)"/><ellipse class="cls-3" cx="399.46" cy="380.62" rx="17.05" ry="11.4" transform="translate(-103.33 607.86) rotate(-67.94)"/><ellipse class="cls-2" cx="398.7" cy="380.55" rx="9.21" ry="5.52" transform="translate(-103.75 607.11) rotate(-67.94)"/><path class="cls-3" d="M339.44,379.82c-6.77-3.15-12.07-8.14-13-11-4.66-14.19-15.59-27.45,12.34-45.17,18.33,10.34,38.32,19.84,56.66,30.17-11.28,3.88-25,23-17,48"/><path class="cls-6" d="M322,383c-6.77-3.15-9.07-10.14-10-13-4.66-14.19-1.93-34.28,26-52,18.33,10.33,37.59,20.95,55.92,31.28C373,363,363.73,383.11,368,398c.72,2.51,2,11,12,16"/><path class="cls-6" d="M540.75,274.17A22.87,22.87,0,0,0,532,273a22.62,22.62,0,0,0-8,2c-18.67-10.67-38.34-21.33-57-32a20.49,20.49,0,0,1,8-3,15.54,15.54,0,0,1,10,2Z"/><polygon class="cls-6" points="524.02 275 393.94 349.29 338.02 318 467.02 243 524.02 275"/><path class="cls-7" d="M525.28,313,400.37,384.08a3.21,3.21,0,0,1-3.9-.46A2.35,2.35,0,0,1,396,383c-.94-1.79.09-4.8,3.07-6.43L522.8,304.89a3.53,3.53,0,0,1,5.2,2l0,.07A5.62,5.62,0,0,1,525.28,313Z"/><path class="cls-8" d="M441.09,358.73l-40.17,22.54a1.05,1.05,0,0,1-1.26-.14,1.43,1.43,0,0,1-.14-.2,1.67,1.67,0,0,1,1-2l39.78-22.73a1.15,1.15,0,0,1,1.68.64v0A1.77,1.77,0,0,1,441.09,358.73Z"/><path class="cls-8" d="M524,311.23l-40.17,22.54a1.05,1.05,0,0,1-1.26-.14.75.75,0,0,1-.15-.2,1.68,1.68,0,0,1,1-2l39.79-22.73a1.13,1.13,0,0,1,1.67.65v0A1.76,1.76,0,0,1,524,311.23Z"/><ellipse class="cls-1" cx="329.43" cy="79.5" rx="20.42" ry="17.5"/><ellipse class="cls-15" cx="328.89" cy="76.05" rx="16.12" ry="13.82"/><polygon class="cls-15" points="344.02 53 345.02 77 313.02 78 314.02 53 344.02 53"/><ellipse class="cls-16" cx="328.88" cy="52.28" rx="15.14" ry="12.98"/></g></svg>