<svg id="Layer_1" data-name="Layer 1" xmlns="http://www.w3.org/2000/svg" viewBox="0 0 431.875 459.923"><defs><style>.cls-1{fill:#fedf40;opacity:0.8;isolation:isolate;}.cls-2{fill:#96cff0;}.cls-3,.cls-4,.cls-5,.cls-6{fill:none;}.cls-4{stroke:#1a2453;stroke-miterlimit:10;}.cls-4,.cls-5,.cls-6{stroke-width:5px;}.cls-5{stroke:#fedf40;}.cls-5,.cls-6{stroke-linecap:round;stroke-linejoin:round;}.cls-6{stroke:#96cff0;}</style></defs><g id="Layer_2" data-name="Layer 2"><g id="Final_Logo" data-name="Final Logo"><path class="cls-1" d="M167,473l-19.37,33.53a4.1,4.1,0,0,1-5.613,1.454c-.046-.027-.092-.055-.137-.084a110.25,110.25,0,0,1-.38-186.22,4.1,4.1,0,0,1,5.671,1.209c.034.053.067.107.1.161l20.07,34.78a4,4,0,0,1-.71,5,71.921,71.921,0,0,0-3.917,101.635q1.683,1.817,3.487,3.515A4.121,4.121,0,0,1,167,473Z" transform="translate(-90.464 -73.977)"/><path class="cls-2" d="M423,517.17H320.82a4,4,0,0,1-4-4V338.48a4,4,0,0,1,7.52-2L426.44,511.1a4,4,0,0,1-3.44,6.07Z" transform="translate(-90.464 -73.977)"/><path class="cls-2" d="M227,218.56H181.73a4,4,0,0,0-4,4v57.21a4,4,0,0,1-4,4h-76a4,4,0,0,1-4-4V92.71a4,4,0,0,1,4-4h76a4,4,0,0,1,4,4v56.92a4,4,0,0,0,4,4h9.06a4,4,0,0,1,3.4,1.87l36.21,56.83a4,4,0,0,1-3.4,6.23Z" transform="translate(-90.464 -73.977)"/><path class="cls-1" d="M462.88,278a4,4,0,0,1-3.61,5.84H317.2a4,4,0,0,1-3.61-5.84l71-142.29a4,4,0,0,1,7.22,0Z" transform="translate(-90.464 -73.977)"/><line class="cls-3" x1="106.036" y1="254.373" x2="105.966" y2="253.933"/><line class="cls-3" x1="105.336" y1="458.503" x2="105.106" y2="459.923"/><line class="cls-3" x1="70.376" y1="267.123" x2="70.196" y2="266.823"/><line class="cls-3" x1="122.456" y1="357.343" x2="122.196" y2="356.923"/><line class="cls-3" x1="70.726" y1="446.073" x2="70.706" y2="446.123"/><line class="cls-3" x1="122.456" y1="356.483" x2="122.196" y2="356.923"/><path class="cls-4" d="M289.27,80.48v187.1a4,4,0,0,1-4,4h-76a4,4,0,0,1-4-4V210.37a4,4,0,0,0-4-4H194a4,4,0,0,0-4,4v57.21a4,4,0,0,1-4,4H109.93a4,4,0,0,1-4-4V80.48a4,4,0,0,1,4-4h75.95a4,4,0,0,1,4,4V137.4a4,4,0,0,0,4,4h7.24a4,4,0,0,0,4-4V80.48a4,4,0,0,1,4-4h76a4,4,0,0,1,4.147,3.847Q289.27,80.4,289.27,80.48Z" transform="translate(-90.464 -73.977)"/><path class="cls-4" d="M519.39,265.78a4,4,0,0,1-3.61,5.84H335.54a4,4,0,0,1-3.61-5.84l90.12-180.5a4,4,0,0,1,7.22,0Z" transform="translate(-90.464 -73.977)"/><path class="cls-4" d="M467.34,410.43,519,498.86a4,4,0,0,1-3.49,6.07H333.05a4,4,0,0,1-4-4V315.4a4,4,0,0,1,4-4H515.57a4,4,0,0,1,3.49,6.07L467.33,406.4A4,4,0,0,0,467.34,410.43Z" transform="translate(-90.464 -73.977)"/><path class="cls-4" d="M290.94,471.72a4.069,4.069,0,0,1-.2,4.62A104.309,104.309,0,0,1,207,518.21c-57.57,0-104.23-46.3-104.23-103.42S149.41,311.36,207,311.36a104.312,104.312,0,0,1,83.65,41.73,4,4,0,0,1,.15,4.55L258,409.33a9.759,9.759,0,0,0,0,10.49Z" transform="translate(-90.464 -73.977)"/><polyline class="cls-5" points="365.476 307.793 395.766 255.723 317.096 255.723"/><line class="cls-6" x1="335.196" y1="40.733" x2="369.306" y2="109.053"/><polyline class="cls-5" points="126.926 20.813 159.456 20.813 180.466 20.813 180.466 99.933"/><path class="cls-6" d="M248.31,387.43l20.31-32a77.3,77.3,0,0,0-59.11-27.55" transform="translate(-90.464 -73.977)"/></g></g></svg>