<svg id="Layer_1" data-name="Layer 1" xmlns="http://www.w3.org/2000/svg" xmlns:xlink="http://www.w3.org/1999/xlink" viewBox="0 0 1309.487 352.52"><defs><style>.cls-1{fill:none;}.cls-2{fill:#f8ec24;}.cls-3{clip-path:url(#clip-path);}.cls-4{fill:#4899d4;}.cls-5{fill:#32358c;}</style><clipPath id="clip-path" transform="translate(-234.845 -357.137)"><path class="cls-1" d="M395.945,368.782a4.613,4.613,0,0,1,.522-2.087,5.766,5.766,0,0,1,1.434-1.825,9.68,9.68,0,0,1,1.956-1.305,4.642,4.642,0,0,1,2.087-.522h12.518a4.343,4.343,0,0,1,1.7.392,10.669,10.669,0,0,1,1.695.913,4.719,4.719,0,0,1,1.3,1.3,3.232,3.232,0,0,1,.521,1.825V426.94a32.436,32.436,0,0,1,7.173-3.521,23.731,23.731,0,0,1,7.954-1.434h70.938a8.67,8.67,0,0,1,3.39.782,10.425,10.425,0,0,1,3.26,2.217,15.038,15.038,0,0,1,2.347,3,6.63,6.63,0,0,1,.913,3.391V539.606a10.1,10.1,0,0,1-1.043,4.3,13.841,13.841,0,0,1-2.738,3.912,14.44,14.44,0,0,1-3.782,2.738,9.265,9.265,0,0,1-4.173,1.043h-94.41a12.822,12.822,0,0,1-4.695-.913,18.627,18.627,0,0,1-4.3-2.347,12.514,12.514,0,0,1-3.259-3.521,7.779,7.779,0,0,1-1.305-4.173ZM440.8,443.631a5.349,5.349,0,0,0-5.216,5.216v75.894a5.311,5.311,0,0,0,1.565,3.912,5,5,0,0,0,3.651,1.564h44.6a5.347,5.347,0,0,0,5.477-5.476V448.847a5.009,5.009,0,0,0-1.565-3.651,5.308,5.308,0,0,0-3.912-1.565ZM549.192,363.3H564.58a3.475,3.475,0,0,1,1.565.392,3.908,3.908,0,0,1,1.3,1.043,8.114,8.114,0,0,1,.913,1.434,3.47,3.47,0,0,1,.391,1.565v95.453a10.682,10.682,0,0,0,.652,3.261,37.463,37.463,0,0,0,1.7,4.173q1.038,2.217,2.347,4.694t2.738,4.824q1.431,2.348,2.869,4.694t2.478,4.435q1.039,2.091,1.695,3.781a8.2,8.2,0,0,1,.652,2.739v49.813a4.625,4.625,0,0,1-.522,2.086,9.579,9.579,0,0,1-1.3,1.956,6.436,6.436,0,0,1-1.7,1.435,3.868,3.868,0,0,1-1.956.521H552.844a9.594,9.594,0,0,1-2.478-.392,6.1,6.1,0,0,1-2.478-1.3,12.684,12.684,0,0,1-1.826-1.956,3.806,3.806,0,0,1-.782-2.347V368a4.893,4.893,0,0,1,.261-1.565,3.626,3.626,0,0,1,.913-1.434,16.135,16.135,0,0,1,1.3-1.174A2.249,2.249,0,0,1,549.192,363.3Zm61.967,62.854a7.846,7.846,0,0,1,.13-1.3,3.052,3.052,0,0,1,.652-1.435,5.9,5.9,0,0,1,1.043-1.043,1.725,1.725,0,0,1,1.043-.391h19.3a2.9,2.9,0,0,1,2.086,1.174,3.464,3.464,0,0,1,1.044,2.216v45.119a9.756,9.756,0,0,0,.521,3.13,15.623,15.623,0,0,0,1.565,3.259q1.038,1.7,2.217,3.391t2.477,3.651q1.3,1.956,2.608,4.173a27.654,27.654,0,0,1,2.217,4.824,48.4,48.4,0,0,1,1.565,5.608,31.561,31.561,0,0,1,.652,6.65v23.734a2.142,2.142,0,0,0,.912,1.564,2.7,2.7,0,0,0,1.7.782h51.638a3.687,3.687,0,0,0,3.13-3.129V425.9a4.264,4.264,0,0,1,.261-1.3,3.612,3.612,0,0,1,.913-1.434,6.811,6.811,0,0,1,1.3-1.044,2.722,2.722,0,0,1,1.434-.391h16.17a1.741,1.741,0,0,1,1.043.391,10.319,10.319,0,0,1,1.043.913,3.551,3.551,0,0,1,.782,1.174,3.249,3.249,0,0,1,.261,1.173V546.387a3.316,3.316,0,0,1-.652,1.956,9.5,9.5,0,0,1-1.565,1.7,6.169,6.169,0,0,1-2.086,1.172,7.026,7.026,0,0,1-2.216.392H618.722a9.01,9.01,0,0,1-2.608-.392,9.192,9.192,0,0,1-2.478-1.172,6.836,6.836,0,0,1-1.825-1.7,3.694,3.694,0,0,1-.652-2.217Zm149.335,3.912a6.141,6.141,0,0,1,.912-3.13,9.224,9.224,0,0,1,2.478-2.738,13.483,13.483,0,0,1,3.26-1.826,9.767,9.767,0,0,1,3.521-.652h99.887a8.67,8.67,0,0,1,3.39.782,13.627,13.627,0,0,1,3.26,1.956,11.468,11.468,0,0,1,2.478,2.87,6.655,6.655,0,0,1,1.043,3.52v50.856a4.383,4.383,0,0,1-.783,2.478,11.48,11.48,0,0,1-1.956,2.217,11.316,11.316,0,0,1-2.477,1.695,5.782,5.782,0,0,1-2.608.652h-71.72a3.577,3.577,0,0,0-3.391,3.39v35.73a2.965,2.965,0,0,0,.652,1.7,1.986,1.986,0,0,0,1.695.913h53.986a3.352,3.352,0,0,0,2.608-2.608V514.83a3.687,3.687,0,0,1,3.13-3.129h16.952a3.9,3.9,0,0,1,1.434.26,3.565,3.565,0,0,1,1.174.783,6.293,6.293,0,0,1,.913,1.173,2.738,2.738,0,0,1,.391,1.435V544.04a5.019,5.019,0,0,1-.783,2.608,16.482,16.482,0,0,1-1.825,2.477,7.784,7.784,0,0,1-2.347,1.826,5.782,5.782,0,0,1-2.608.652H770.665a9.2,9.2,0,0,1-3.651-.782,13.479,13.479,0,0,1-3.261-1.956A9.4,9.4,0,0,1,761.406,546a6.844,6.844,0,0,1-.912-3.26Zm39.641,12a2.1,2.1,0,0,0-1.695.782,2.444,2.444,0,0,0-.652,1.565V466.06a2.237,2.237,0,0,0,2.347,2.348H853.86a2.44,2.44,0,0,0,1.565-.653,2.1,2.1,0,0,0,.783-1.695V444.414a2.767,2.767,0,0,0-2.348-2.347ZM907.481,604.285V432.677a7.571,7.571,0,0,1,1.3-4.3,15.524,15.524,0,0,1,3.26-3.521,16.36,16.36,0,0,1,4.3-2.478,12.27,12.27,0,0,1,4.433-.913h89.455a8.455,8.455,0,0,1,4.173,1.174,17.467,17.467,0,0,1,3.781,2.868,13.938,13.938,0,0,1,2.739,3.912,9.669,9.669,0,0,1,1.043,4.043V541.693a7.34,7.34,0,0,1-.913,3.52,11.234,11.234,0,0,1-2.347,3,14.335,14.335,0,0,1-3.26,2.217,7.606,7.606,0,0,1-3.391.913H951.3c-.872,0-1.74.045-2.608.13a5.422,5.422,0,0,0-2.478.913,9.4,9.4,0,0,0-1.956,1.7,3.278,3.278,0,0,0-.782,2.216v49.292a2.819,2.819,0,0,1-.522,1.565,5.7,5.7,0,0,1-1.434,1.434,10.053,10.053,0,0,1-1.826,1.043,4.335,4.335,0,0,1-1.7.392H913.479a4.63,4.63,0,0,1-2.086-.523,9.574,9.574,0,0,1-1.956-1.3A5.788,5.788,0,0,1,908,606.372,4.606,4.606,0,0,1,907.481,604.285Zm28.428-74.068h57.9a5.347,5.347,0,0,0,5.476-5.476V448.326a5,5,0,0,0-1.565-3.652,5.306,5.306,0,0,0-3.911-1.564h-57.9a5.347,5.347,0,0,0-5.217,5.216v76.415a5.311,5.311,0,0,0,1.565,3.912A5,5,0,0,0,935.909,530.217ZM1051.861,431.9a7.314,7.314,0,0,1,.912-3.52,11.956,11.956,0,0,1,2.478-3.13,14.935,14.935,0,0,1,3.391-2.347,8.105,8.105,0,0,1,3.651-.913h77.979a6.956,6.956,0,0,1,3.13.782,16.22,16.22,0,0,1,3,1.956,8.367,8.367,0,0,1,2.217,2.738,6.94,6.94,0,0,1,.782,3.13v24.777a8.693,8.693,0,0,1-.26,2.086,7.749,7.749,0,0,1-.783,1.956,4.152,4.152,0,0,1-1.3,1.434,3.2,3.2,0,0,1-1.825.522H1129.84a4.293,4.293,0,0,1-1.694-.392,10.161,10.161,0,0,1-1.7-.912,3.36,3.36,0,0,1-1.174-1.305,3.479,3.479,0,0,1-.391-1.564V444.935a2.542,2.542,0,0,0-1.173-1.956,3.993,3.993,0,0,0-2.478-.912h-42.25a2.107,2.107,0,0,0-1.3.391,4.308,4.308,0,0,0-1.565,2.216,4.269,4.269,0,0,0-.261,1.3v18a19.662,19.662,0,0,0,.522,4.564,22.265,22.265,0,0,0,1.565,4.433q1.04,2.22,2.347,4.434t2.608,4.433q1.3,2.22,2.608,4.3a29.558,29.558,0,0,1,2.217,4.3,41.021,41.021,0,0,1,1.565,4.564,17.582,17.582,0,0,1,.652,4.695v45.379a4.616,4.616,0,0,1-.652,2.217,9.4,9.4,0,0,1-1.565,2.086,9.26,9.26,0,0,1-2.086,1.565,5.017,5.017,0,0,1-2.478.652h-24.776a4.395,4.395,0,0,1-2.478-.782,10.421,10.421,0,0,1-2.086-1.826,7.977,7.977,0,0,1-1.435-2.347,6.916,6.916,0,0,1-.521-2.608Zm129.775-27.645a13.2,13.2,0,0,1-5.478-1.173,14.122,14.122,0,0,1-7.432-7.433,12.6,12.6,0,0,1-1.173-5.216,13.2,13.2,0,0,1,1.173-5.477,14.122,14.122,0,0,1,7.432-7.433,13.2,13.2,0,0,1,5.478-1.174,12.646,12.646,0,0,1,5.216,1.174,14.122,14.122,0,0,1,7.432,7.433,13.216,13.216,0,0,1,1.174,5.477,12.615,12.615,0,0,1-1.174,5.216,14.122,14.122,0,0,1-7.432,7.433A12.645,12.645,0,0,1,1181.636,404.25Zm-7.564,17.735h15.387a3.467,3.467,0,0,1,1.565.391,3.9,3.9,0,0,1,1.3,1.043,8.143,8.143,0,0,1,.913,1.435,3.468,3.468,0,0,1,.392,1.564v36.773a10.707,10.707,0,0,0,.651,3.261,37.834,37.834,0,0,0,1.695,4.173q1.04,2.217,2.348,4.694t2.738,4.824q1.431,2.348,2.869,4.694t2.478,4.435q1.038,2.091,1.694,3.781a8.179,8.179,0,0,1,.653,2.739v49.813a4.625,4.625,0,0,1-.522,2.086,9.615,9.615,0,0,1-1.3,1.956,6.44,6.44,0,0,1-1.7,1.435,3.868,3.868,0,0,1-1.956.521h-25.558a9.594,9.594,0,0,1-2.478-.392,6.089,6.089,0,0,1-2.477-1.3,12.642,12.642,0,0,1-1.827-1.956,3.806,3.806,0,0,1-.782-2.347V426.679a4.887,4.887,0,0,1,.261-1.564,4.8,4.8,0,0,1,.913-1.566,5.242,5.242,0,0,1,1.3-1.173A2.727,2.727,0,0,1,1174.072,421.985Zm61.445,8.085q0-4.432,1.956-6.39t7.433-1.956h98.582a27.272,27.272,0,0,1,4.956.391,9.961,9.961,0,0,1,3.521,1.3,5.251,5.251,0,0,1,2.086,2.608,16.54,16.54,0,0,1,.913,4.043l.261,117.1a6.415,6.415,0,0,1-.391,2.478,9.027,9.027,0,0,1-.652,1.3,1.259,1.259,0,0,1-.653.521,2.064,2.064,0,0,1-.651.131h-16.691a4.236,4.236,0,0,1-1.3-.261,3.577,3.577,0,0,1-1.435-.913,6.7,6.7,0,0,1-1.044-1.3,2.733,2.733,0,0,1-.39-1.434V447.022a18.592,18.592,0,0,0-.131-2.478,2.3,2.3,0,0,0-.522-1.3,2.011,2.011,0,0,0-1.043-.522,9.142,9.142,0,0,0-1.695-.13h-65.2a13.085,13.085,0,0,0-2.217.13,2,2,0,0,0-1.043.522,1.592,1.592,0,0,0-.392,1.174v30.774a10.964,10.964,0,0,0,.522,3.261,12.368,12.368,0,0,0,1.564,3.259c.694,1.043,1.435,2.046,2.217,3s1.607,1.915,2.479,2.869,1.695,1.915,2.477,2.868a23.521,23.521,0,0,1,2.086,3,26.709,26.709,0,0,1,1.566,3.129,8.8,8.8,0,0,1,.651,3.39v47.727a2.725,2.725,0,0,1-.391,1.434,6.743,6.743,0,0,1-1.044,1.3,3.934,3.934,0,0,1-1.3.913,3.813,3.813,0,0,1-1.435.261h-30.253a3.167,3.167,0,0,1-1.174-.261,3.351,3.351,0,0,1-1.172-.782,3.387,3.387,0,0,1-.784-1.174,3.813,3.813,0,0,1-.26-1.434Zm166.026-46.684h13.04a5.308,5.308,0,0,1,3.912,1.565,5.007,5.007,0,0,1,1.565,3.651v33.383h28.427a3.945,3.945,0,0,1,2.087.652,7.989,7.989,0,0,1,1.825,1.565,9.774,9.774,0,0,1,1.3,1.956,4.648,4.648,0,0,1,.522,2.086v27.384a4.325,4.325,0,0,1-.391,1.7,4.908,4.908,0,0,1-1.043,1.564,9.361,9.361,0,0,1-1.435,1.174,2.781,2.781,0,0,1-1.565.521H1420.06v66.5a4.272,4.272,0,0,0,.26,1.305,3.613,3.613,0,0,0,.913,1.434,6.757,6.757,0,0,0,1.3,1.044,2.739,2.739,0,0,0,1.435.39h14.084a3.468,3.468,0,0,1,1.564.392,5.605,5.605,0,0,1,1.435,1.043,5.039,5.039,0,0,1,1.043,1.564,4.358,4.358,0,0,1,.391,1.7v10.171a5.915,5.915,0,0,1-1.3,3.913,4.212,4.212,0,0,1-3.39,1.564h-36.252a5.347,5.347,0,0,1-5.216-5.216V443.371h-10.693a3.793,3.793,0,0,1-1.434-.261,3.873,3.873,0,0,1-1.3-.913,6.653,6.653,0,0,1-1.043-1.3,2.731,2.731,0,0,1-.392-1.435V425.636a3.179,3.179,0,0,1,.262-1.174,5.1,5.1,0,0,1,.651-1.173,3.6,3.6,0,0,1,1.043-.913,2.323,2.323,0,0,1,1.174-.391h11.736V388.6a5.349,5.349,0,0,1,5.216-5.216Z"/></clipPath></defs><title>bplogo</title><path class="cls-2" d="M412.288,565.87a21.731,21.731,0,0,1-7.934-1.523,27.571,27.571,0,0,1-6.331-3.461,21.426,21.426,0,0,1-5.551-6,16.541,16.541,0,0,1-2.648-8.876V374.147a13.443,13.443,0,0,1,1.471-6.086,14.64,14.64,0,0,1,3.61-4.6,18.564,18.564,0,0,1,3.732-2.484,13.51,13.51,0,0,1,6.088-1.471h12.518a13.182,13.182,0,0,1,5.188,1.105,19.735,19.735,0,0,1,3.131,1.688,13.665,13.665,0,0,1,3.763,3.75,12.194,12.194,0,0,1,2.036,6.792v46.242a31.293,31.293,0,0,1,6.224-.636h70.938a17.521,17.521,0,0,1,6.893,1.5,19.361,19.361,0,0,1,6.038,4.092,24.146,24.146,0,0,1,3.749,4.809,15.474,15.474,0,0,1,2.133,7.89V544.971a18.956,18.956,0,0,1-1.888,8.088,22.764,22.764,0,0,1-4.5,6.422,23.385,23.385,0,0,1-6.1,4.41,18.11,18.11,0,0,1-8.147,1.979Zm72.468-39.189V457.9H447.27v68.783Z" transform="translate(-234.845 -357.137)"/><path class="cls-2" d="M555.624,565.87a18.214,18.214,0,0,1-4.826-.706,14.965,14.965,0,0,1-6.019-3.216,21.5,21.5,0,0,1-3.062-3.3,12.687,12.687,0,0,1-2.558-7.682V373.364a13.787,13.787,0,0,1,.725-4.4,12.4,12.4,0,0,1,3.049-4.886,25.564,25.564,0,0,1,2.027-1.824,11.113,11.113,0,0,1,7.013-2.485H567.36a12.307,12.307,0,0,1,5.544,1.33,12.763,12.763,0,0,1,4.239,3.4,17.413,17.413,0,0,1,1.959,3.055,12.322,12.322,0,0,1,1.333,5.551v95.225a6.636,6.636,0,0,0,.193.667,28.659,28.659,0,0,0,1.3,3.193c.645,1.376,1.37,2.827,2.168,4.337.777,1.48,1.6,2.932,2.461,4.336.96,1.576,1.913,3.134,2.868,4.693,1.093,1.8,2.046,3.5,2.843,5.093.848,1.706,1.511,3.189,2.042,4.564a16.456,16.456,0,0,1,1.25,5.946V550.97a13.468,13.468,0,0,1-1.462,6.068,18.58,18.58,0,0,1-2.512,3.773,15.247,15.247,0,0,1-4.037,3.367,12.655,12.655,0,0,1-6.368,1.692Z" transform="translate(-234.845 -357.137)"/><path class="cls-2" d="M621.5,565.87a18.1,18.1,0,0,1-10.024-3.059,15.7,15.7,0,0,1-4.157-3.964,12.557,12.557,0,0,1-2.284-7.355V431.523a16.55,16.55,0,0,1,.259-2.815,11.952,11.952,0,0,1,2.486-5.5,14.454,14.454,0,0,1,2.67-2.609,10.512,10.512,0,0,1,6.355-2.151h19.3a11.615,11.615,0,0,1,8.734,4.155,12.14,12.14,0,0,1,3.3,8.138v45.118a.907.907,0,0,0,.058.293,6.813,6.813,0,0,0,.7,1.421q.891,1.457,1.957,2.994c.816,1.182,1.665,2.432,2.563,3.777.937,1.408,1.9,2.948,2.871,4.59a36.736,36.736,0,0,1,2.949,6.4A57.371,57.371,0,0,1,661.105,502a40.607,40.607,0,0,1,.856,8.549v17.179h39.573V431.262a12.853,12.853,0,0,1,.725-4.14,12.365,12.365,0,0,1,3.059-4.9,15.715,15.715,0,0,1,3.015-2.379,11.654,11.654,0,0,1,6.015-1.659h16.17a10.6,10.6,0,0,1,6.356,2.149,19.458,19.458,0,0,1,1.989,1.726l.075.075a12.433,12.433,0,0,1,2.7,4.088,12.228,12.228,0,0,1,.912,4.515V551.752a12.227,12.227,0,0,1-2.3,7.117,18.551,18.551,0,0,1-3.017,3.287,15.137,15.137,0,0,1-5.075,2.866,15.9,15.9,0,0,1-5.03.848Z" transform="translate(-234.845 -357.137)"/><path class="cls-2" d="M773.445,565.87a18.077,18.077,0,0,1-7.163-1.5,22.4,22.4,0,0,1-5.394-3.253,18.268,18.268,0,0,1-4.546-5.546,15.6,15.6,0,0,1-1.969-7.466V435.435a14.942,14.942,0,0,1,2.134-7.631,18.1,18.1,0,0,1,4.816-5.359,22.5,22.5,0,0,1,5.407-3.012,18.678,18.678,0,0,1,6.715-1.245h99.888a17.5,17.5,0,0,1,6.893,1.5,22.574,22.574,0,0,1,5.389,3.246,20.4,20.4,0,0,1,4.421,5.087,15.5,15.5,0,0,1,2.37,8.2v50.857a13.34,13.34,0,0,1-2.28,7.419,20.944,20.944,0,0,1-7.868,6.938,14.628,14.628,0,0,1-6.578,1.586H809.471v23.924h41.137V520.2a12.49,12.49,0,0,1,12.032-12.031h16.952a12.783,12.783,0,0,1,4.679.873l.1.039a12.421,12.421,0,0,1,4.091,2.7l.075.075a15.249,15.249,0,0,1,2.2,2.833,11.722,11.722,0,0,1,1.67,6.03v28.688a13.819,13.819,0,0,1-2.055,7.2,25.51,25.51,0,0,1-2.792,3.793,16.687,16.687,0,0,1-5.048,3.894,14.591,14.591,0,0,1-6.571,1.583Zm76.641-101v-8.537H809.471v8.537Z" transform="translate(-234.845 -357.137)"/><path class="cls-2" d="M916.26,624.29a13.46,13.46,0,0,1-6.069-1.463,18.569,18.569,0,0,1-3.772-2.511,14.61,14.61,0,0,1-3.6-4.6,13.413,13.413,0,0,1-1.462-6.068V438.042a16.577,16.577,0,0,1,2.807-9.251,24.431,24.431,0,0,1,5.1-5.524,25.269,25.269,0,0,1,6.627-3.818,21.181,21.181,0,0,1,7.669-1.522h89.455a17.278,17.278,0,0,1,8.534,2.315,26.5,26.5,0,0,1,5.7,4.323,22.93,22.93,0,0,1,4.5,6.414,18.509,18.509,0,0,1,1.9,7.847V547.058a16.181,16.181,0,0,1-1.976,7.739,20.2,20.2,0,0,1-4.194,5.363,23.256,23.256,0,0,1-5.271,3.6,16.412,16.412,0,0,1-7.372,1.852H955.154v45.346a11.727,11.727,0,0,1-2.007,6.488,14.651,14.651,0,0,1-3.656,3.74,19.158,19.158,0,0,1-3.509,1.994,13.225,13.225,0,0,1-5.206,1.113Zm76.9-97.609v-69.3H942.375v69.3Z" transform="translate(-234.845 -357.137)"/><path class="cls-2" d="M1061.162,565.87a13.344,13.344,0,0,1-7.416-2.277,19.357,19.357,0,0,1-3.863-3.388,16.791,16.791,0,0,1-2.992-4.9,15.741,15.741,0,0,1-1.151-5.9V437.26a16.15,16.15,0,0,1,1.979-7.745,20.861,20.861,0,0,1,4.293-5.463,23.953,23.953,0,0,1,5.418-3.745,16.963,16.963,0,0,1,7.644-1.859h77.979a15.787,15.787,0,0,1,7.111,1.722,25.108,25.108,0,0,1,4.651,3.026,17.235,17.235,0,0,1,4.545,5.65,15.779,15.779,0,0,1,1.724,7.111v24.776a17.606,17.606,0,0,1-.524,4.23,16.7,16.7,0,0,1-1.691,4.225,13.061,13.061,0,0,1-4.106,4.435,12.088,12.088,0,0,1-6.754,2.01h-15.388a13.148,13.148,0,0,1-5.218-1.118,19.123,19.123,0,0,1-3.139-1.7,12.394,12.394,0,0,1-5.5-10.257v-6.224h-31.227v13a10.9,10.9,0,0,0,.281,2.508,13.407,13.407,0,0,0,.953,2.686q.875,1.869,1.962,3.709c.886,1.51,1.745,2.973,2.606,4.43s1.685,2.827,2.486,4.1a38.793,38.793,0,0,1,2.9,5.626,50.426,50.426,0,0,1,1.917,5.586,26.656,26.656,0,0,1,.978,7.082v45.379a13.4,13.4,0,0,1-1.759,6.514,18.39,18.39,0,0,1-3.065,4.084,18.175,18.175,0,0,1-4.081,3.064,13.787,13.787,0,0,1-6.778,1.76Z" transform="translate(-234.845 -357.137)"/><path class="cls-2" d="M1180.5,565.87a18.2,18.2,0,0,1-4.824-.706,14.956,14.956,0,0,1-6.018-3.214,21.406,21.406,0,0,1-3.067-3.3,12.682,12.682,0,0,1-2.556-7.678V432.044a13.768,13.768,0,0,1,.728-4.408,13.58,13.58,0,0,1,2.515-4.428,14.035,14.035,0,0,1,3.572-3.109,11.619,11.619,0,0,1,6-1.651h5.785a22.037,22.037,0,0,1-7.356-1.89,23,23,0,0,1-11.895-11.9,21.478,21.478,0,0,1-1.957-8.866,22.1,22.1,0,0,1,1.957-9.126,23,23,0,0,1,11.9-11.9,22.081,22.081,0,0,1,9.126-1.956,21.511,21.511,0,0,1,8.867,1.957,23,23,0,0,1,11.9,11.893,22.134,22.134,0,0,1,1.96,9.135,21.51,21.51,0,0,1-1.959,8.873,23.012,23.012,0,0,1-11.894,11.892,21.836,21.836,0,0,1-7.184,1.89h6.136a12.293,12.293,0,0,1,5.558,1.338,12.731,12.731,0,0,1,4.227,3.394,17.221,17.221,0,0,1,1.961,3.064,12.264,12.264,0,0,1,1.329,5.54v36.543c.025.11.08.327.193.666a28.537,28.537,0,0,0,1.3,3.2c.644,1.374,1.371,2.826,2.168,4.334.773,1.475,1.6,2.927,2.46,4.338.959,1.573,1.913,3.132,2.868,4.691,1.089,1.79,2.042,3.5,2.842,5.091.846,1.7,1.509,3.185,2.041,4.563a16.44,16.44,0,0,1,1.251,5.949V550.97a13.476,13.476,0,0,1-1.463,6.072,18.6,18.6,0,0,1-2.51,3.769,15.242,15.242,0,0,1-4.036,3.367,12.662,12.662,0,0,1-6.37,1.692Z" transform="translate(-234.845 -357.137)"/><path class="cls-2" d="M1338.967,565.87a12.879,12.879,0,0,1-4.134-.722,12.367,12.367,0,0,1-4.935-3.094,15.415,15.415,0,0,1-2.35-2.991,11.639,11.639,0,0,1-1.656-6.007v-96.2h-54.437v23.7a2.215,2.215,0,0,0,.121.621,3.514,3.514,0,0,0,.463.952,28.329,28.329,0,0,0,1.7,2.3q1.074,1.314,2.167,2.511,1.475,1.625,2.788,3.227a32.538,32.538,0,0,1,2.888,4.149,35.821,35.821,0,0,1,2.1,4.19,17.728,17.728,0,0,1,1.343,6.828v47.726a11.672,11.672,0,0,1-1.674,6.037,15.667,15.667,0,0,1-2.368,3,12.777,12.777,0,0,1-4.323,2.895,12.635,12.635,0,0,1-4.711.886h-30.253a11.984,11.984,0,0,1-4.47-.893,12.246,12.246,0,0,1-4.207-2.792,12.1,12.1,0,0,1-2.719-4.13,12.647,12.647,0,0,1-.9-4.738V435.435c0-5.389,1.536-9.656,4.563-12.684,3.071-3.071,7.562-4.563,13.728-4.563h98.583a35.744,35.744,0,0,1,6.592.542,18.836,18.836,0,0,1,6.651,2.537,14.224,14.224,0,0,1,5.622,6.915,25.265,25.265,0,0,1,1.457,6.26l.054.485.262,117.588a14.965,14.965,0,0,1-1.113,6.008,16.919,16.919,0,0,1-1.387,2.673l-.063.1a10.1,10.1,0,0,1-5.2,3.984,10.9,10.9,0,0,1-3.488.594Z" transform="translate(-234.845 -357.137)"/><path class="cls-2" d="M1404.324,565.87a14.248,14.248,0,0,1-14.119-14.118V457.638h-1.79a12.445,12.445,0,0,1-9.031-3.78,15.555,15.555,0,0,1-2.382-3.015,11.688,11.688,0,0,1-1.662-6.019V431a12.047,12.047,0,0,1,.9-4.489,13.966,13.966,0,0,1,1.772-3.171,12.511,12.511,0,0,1,3.62-3.241,10.993,10.993,0,0,1,5.739-1.652h2.833V393.967a14.246,14.246,0,0,1,14.119-14.117h13.04a14.123,14.123,0,0,1,10.206,4.171,13.817,13.817,0,0,1,4.173,9.946v24.481h19.525a12.885,12.885,0,0,1,6.785,1.993,17.025,17.025,0,0,1,3.881,3.327,18.943,18.943,0,0,1,2.5,3.738,13.575,13.575,0,0,1,1.479,6.1v27.385a13.172,13.172,0,0,1-1.113,5.206,13.767,13.767,0,0,1-2.929,4.348,18.388,18.388,0,0,1-2.8,2.292,11.647,11.647,0,0,1-6.493,2.011h-20.829v52.873h9.093a12.3,12.3,0,0,1,5.546,1.331,14.491,14.491,0,0,1,3.72,2.682,14.039,14.039,0,0,1,2.951,4.36,13.257,13.257,0,0,1,1.119,5.223v10.172a14.807,14.807,0,0,1-3.361,9.6,13.119,13.119,0,0,1-10.236,4.774Z" transform="translate(-234.845 -357.137)"/><g class="cls-3"><rect class="cls-4" width="1309.487" height="206.527"/><rect class="cls-5" y="145.993" width="1309.487" height="206.527"/></g></svg>