<svg id="Layer_1" data-name="Layer 1" xmlns="http://www.w3.org/2000/svg" viewBox="0 0 446.42 508.97"><defs><style>.cls-1{fill:none;}.cls-2{fill:#4d4d4d;}.cls-3{fill:#333;}.cls-4{fill:#1b4581;}.cls-5{fill:#96cff0;}.cls-6{fill:#2895cd;}.cls-7{fill:#1a1a1a;}.cls-8{fill:#fff;}.cls-9{fill:#ffdf3f;}.cls-10{fill:#ff1d25;}.cls-11{fill:#4699d3;}.cls-12{fill:#146fc1;}</style></defs><path d="M5.8,308c9.16,20,27.88,30.85,41.12,36.49l86.18-136c-10.68-11.57-30.12-28.32-53.93-27.74C29,182-16.45,259.54,5.8,308Z"/><path class="cls-1" d="M5.8,326C-2,190.13,132.4,129.56,159.47,237.31"/><ellipse class="cls-2" cx="86.71" cy="273.39" rx="82.23" ry="56.02" transform="translate(-199.23 251.06) rotate(-67.94)"/><ellipse class="cls-3" cx="92.83" cy="273.59" rx="47.4" ry="31.69" transform="translate(-195.59 256.85) rotate(-67.94)"/><ellipse class="cls-4" cx="90.7" cy="273.39" rx="25.6" ry="15.35" transform="matrix(0.38, -0.93, 0.93, 0.38, -196.74, 254.76)"/><path class="cls-5" d="M206.63-1.51h.26A38.44,38.44,0,0,1,210.5,0a37.42,37.42,0,0,1,11.62,9l-15.23,8.26"/><polyline class="cls-4" points="206.81 243.75 192.43 235.63 192.43 9.4 206.76 17.3"/><polygon class="cls-6" points="222.12 235.06 222.12 9.08 206.76 17.3 206.79 243.63 222.12 235.06"/><path class="cls-6" d="M206.89-1.51a20.56,20.56,0,0,0-6.2,2.33,21.21,21.21,0,0,0-8.21,8.73l14.41,7.79"/><path class="cls-5" d="M394.3,90.65h.26c1.16.43,2.37.94,3.62,1.55a37.82,37.82,0,0,1,11.62,9l-15.24,8.27"/><polyline class="cls-4" points="394.49 335.91 380.1 327.8 380.1 101.56 394.43 109.46"/><polygon class="cls-6" points="409.8 327.22 409.8 101.24 394.43 109.46 394.46 335.79 409.8 327.22"/><path class="cls-6" d="M394.56,90.65a20.66,20.66,0,0,0-6.2,2.33,21.24,21.24,0,0,0-8.2,8.73l14.4,7.8"/><polygon class="cls-6" points="427.12 413.24 427.23 336.27 408.13 346.6 393.12 433.24 427.12 413.24"/><path class="cls-4" d="M272.12,501.24l-262-125a106.38,106.38,0,0,1,0-76l262,122"/><path class="cls-6" d="M427.12,414.24l-.25-74.83L272.12,422.24c-1.09,2.55-2.1,5.21-3,8-8.89,27.45-3.35,53.76,2.85,71.49C325.69,471.56,373.4,444.4,427.12,414.24Z"/><path class="cls-5" d="M10.12,300.24l148.54-83.39c5.76-3.23,15.34-3.55,21.3-.72l242.4,115.36c6,2.84,6.08,7.72.27,10.86L277.68,420.54c-5.81,3.13-15.41,3.31-21.33.4L10.16,300"/><path class="cls-7" d="M292.75,464.52c9.16,20,27.88,30.85,41.12,36.49l86.18-136c-10.68-11.57-30.12-28.32-53.93-27.74C315.94,338.45,270.5,416,292.75,464.52Z"/><path class="cls-1" d="M292.75,482.53c-7.77-135.9,126.6-196.47,153.67-88.72"/><ellipse class="cls-2" cx="373.66" cy="429.89" rx="82.23" ry="56.02" transform="translate(-165.11 614.71) rotate(-67.94)"/><ellipse class="cls-3" cx="379.78" cy="430.09" rx="47.4" ry="31.69" transform="translate(-161.47 620.5) rotate(-67.94)"/><ellipse class="cls-4" cx="377.65" cy="429.89" rx="25.6" ry="15.35" transform="matrix(0.38, -0.93, 0.93, 0.38, -162.62, 618.41)"/><ellipse class="cls-8" cx="32.38" cy="354.72" rx="8.77" ry="10.02" transform="translate(-304.85 240.02) rotate(-66)"/><ellipse class="cls-8" cx="69.25" cy="371.52" rx="8.77" ry="10.02" transform="translate(-298.32 283.67) rotate(-66)"/><ellipse class="cls-9" cx="104.14" cy="387.19" rx="8.77" ry="10.02" transform="translate(-291.94 324.84) rotate(-66)"/><ellipse class="cls-10" cx="141.01" cy="402.99" rx="8.77" ry="10.02" transform="translate(-284.49 367.89) rotate(-66)"/><polyline class="cls-4" points="181.43 244.24 177.12 242.14 177.12 237.27 181.39 239.22"/><polygon class="cls-11" points="181.11 244.35 117.08 279.54 113.58 277.66 177.25 242.2 181.11 244.35"/><polygon class="cls-12" points="177.25 242.2 177.12 237.15 113.76 272.17 113.66 277.54 177.25 242.2"/><path class="cls-5" d="M77.23,282.55l17.4-9c5.86-3,15.59-3.35,21.64-.69l24.61,10.81c6,2.65,6.15,7.23.24,10.17l-7.81,3.89c-5.91,3-15.66,3.12-21.67.4l-34.4-15.6"/><polyline class="cls-4" points="198.43 251.65 194.12 249.55 194.12 244.67 198.39 246.63"/><polygon class="cls-11" points="198.11 251.75 134.08 286.94 130.58 285.07 194.25 249.6 198.11 251.75"/><polygon class="cls-12" points="194.25 249.6 194.12 244.56 130.76 279.58 130.66 284.94 194.25 249.6"/><path class="cls-5" d="M94.23,290l17.4-9c5.86-3,15.59-3.35,21.64-.7l24.61,10.81c6,2.66,6.15,7.24.24,10.18l-7.81,3.89c-5.91,2.94-15.66,3.12-21.67.39l-34.4-15.6"/><polyline class="cls-4" points="214.43 258.65 210.12 256.55 210.12 251.67 214.39 253.63"/><polygon class="cls-11" points="214.11 258.75 150.08 293.94 146.58 292.07 210.25 256.6 214.11 258.75"/><polygon class="cls-12" points="210.25 256.6 210.12 251.56 146.76 286.58 146.66 291.94 210.25 256.6"/><path class="cls-5" d="M110.23,297l17.4-9c5.86-3,15.59-3.35,21.64-.7l24.61,10.81c6,2.66,6.15,7.24.24,10.18l-7.81,3.89c-5.91,2.94-15.66,3.12-21.67.39l-34.4-15.6"/></svg>